<svg width="64" height="64" viewBox="0 0 64 64" fill="none" xmlns="http://www.w3.org/2000/svg">
<path d="M53.3333 0H10.6667C4.77563 0 0 4.77563 0 10.6667V53.3333C0 59.2244 4.77563 64 10.6667 64H53.3333C59.2244 64 64 59.2244 64 53.3333V10.6667C64 4.77563 59.2244 0 53.3333 0Z" fill="#29625E"/>
<path d="M-5.33333 40.6665C-5.58223 40.6665 -5.70667 40.5421 -5.70667 40.2931V34.5811C-5.70667 34.3323 -5.58223 34.2079 -5.33333 34.2079H-0.815997C-0.567107 34.2079 -0.442663 34.3323 -0.442663 34.5811V40.2931C-0.442663 40.5421 -0.567107 40.6665 -0.815997 40.6665H-5.33333ZM-0.812497 40.6665C-1.06138 40.6665 -1.18583 40.5421 -1.18583 40.2931V34.5811C-1.18583 34.3323 -1.06138 34.2079 -0.812497 34.2079H3.70484C3.95372 34.2079 4.07818 34.3323 4.07818 34.5811V40.2931C4.07818 40.5421 3.95372 40.6665 3.70484 40.6665H-0.812497ZM3.70834 40.6665C3.45944 40.6665 3.335 40.5421 3.335 40.2931V34.5811C3.335 34.3323 3.45944 34.2079 3.70834 34.2079H8.22566C8.47456 34.2079 8.599 34.3323 8.599 34.5811V40.2931C8.599 40.5421 8.47456 40.6665 8.22566 40.6665H3.70834ZM8.22916 40.6665C7.98028 40.6665 7.85584 40.5421 7.85584 40.2931V34.5811C7.85584 34.3323 7.98028 34.2079 8.22916 34.2079H12.7465C12.9954 34.2079 13.1198 34.3323 13.1198 34.5811V40.2931C13.1198 40.5421 12.9954 40.6665 12.7465 40.6665H8.22916ZM12.75 40.6665C12.5011 40.6665 12.3767 40.5421 12.3767 40.2931V34.5811C12.3767 34.3323 12.5011 34.2079 12.75 34.2079H17.2673C17.5162 34.2079 17.6407 34.3323 17.6407 34.5811V40.2931C17.6407 40.5421 17.5162 40.6665 17.2673 40.6665H12.75ZM38.7748 23.3813C40.318 23.3813 41.749 23.7795 43.0682 24.5759C44.3872 25.3475 45.4326 26.4053 46.2042 27.7493C46.9756 29.0683 47.3614 30.4995 47.3614 32.0425C47.3614 33.5857 46.9756 35.0167 46.2042 36.3359C45.4326 37.6549 44.3872 38.7127 43.0682 39.5091C41.749 40.2807 40.318 40.6665 38.7748 40.6665H30.1134C28.8192 40.6665 27.637 40.4301 26.5668 39.9571C25.5214 39.4595 24.613 38.7749 23.8414 37.9039C23.3188 38.7749 22.6344 39.4595 21.7882 39.9571C20.942 40.4301 19.9464 40.6665 18.8015 40.6665H17.2708C17.0219 40.6665 16.8975 40.5421 16.8975 40.2931V34.5811C16.8975 34.3323 17.0219 34.2079 17.2708 34.2079H18.8015C19.1997 34.2079 19.5108 34.0959 19.7348 33.8719C19.9588 33.6229 20.0708 33.3119 20.0708 32.9385V26.1065H26.1934V29.5413L33.4362 25.2105C34.581 24.5385 35.502 24.0657 36.1988 23.7919C36.9206 23.5181 37.7792 23.3813 38.7748 23.3813ZM38.7748 34.2079C39.422 34.2079 39.957 33.9839 40.3802 33.5359C40.8282 33.0879 41.0522 32.5527 41.0522 31.9305C41.0522 31.2337 40.8282 30.6487 40.3802 30.1759C39.9322 29.6781 39.3596 29.4291 38.6628 29.4291C38.3392 29.4291 37.966 29.5163 37.5428 29.6905C37.1196 29.8647 36.5596 30.1759 35.8628 30.6239L29.9268 34.2079H38.7748Z" fill="white"/>
</svg>
