<svg width="28" height="27" viewBox="0 0 28 27" fill="none" xmlns="http://www.w3.org/2000/svg">
<g filter="url(#filter0_d_303_635)">
<path d="M11.5699 18.82C11.3799 18.82 11.1899 18.75 11.0399 18.6L4.96994 12.53C4.67994 12.24 4.67994 11.76 4.96994 11.47L11.0399 5.4C11.3299 5.11 11.8099 5.11 12.0999 5.4C12.3899 5.69 12.3899 6.17 12.0999 6.46L6.55994 12L12.0999 17.54C12.3899 17.83 12.3899 18.31 12.0999 18.6C11.9599 18.75 11.7599 18.82 11.5699 18.82Z" fill="#29625E"/>
<path d="M22.5 12.75H5.67004C5.26004 12.75 4.92004 12.41 4.92004 12C4.92004 11.59 5.26004 11.25 5.67004 11.25H22.5C22.91 11.25 23.25 11.59 23.25 12C23.25 12.41 22.91 12.75 22.5 12.75Z" fill="#29625E"/>
</g>
<defs>
<filter id="filter0_d_303_635" x="0.752441" y="5.1825" width="26.4976" height="21.6375" filterUnits="userSpaceOnUse" color-interpolation-filters="sRGB">
<feFlood flood-opacity="0" result="BackgroundImageFix"/>
<feColorMatrix in="SourceAlpha" type="matrix" values="0 0 0 0 0 0 0 0 0 0 0 0 0 0 0 0 0 0 127 0" result="hardAlpha"/>
<feOffset dy="4"/>
<feGaussianBlur stdDeviation="2"/>
<feComposite in2="hardAlpha" operator="out"/>
<feColorMatrix type="matrix" values="0 0 0 0 0 0 0 0 0 0 0 0 0 0 0 0 0 0 0.25 0"/>
<feBlend mode="normal" in2="BackgroundImageFix" result="effect1_dropShadow_303_635"/>
<feBlend mode="normal" in="SourceGraphic" in2="effect1_dropShadow_303_635" result="shape"/>
</filter>
</defs>
</svg>
