<svg width="69" height="32" viewBox="0 0 69 32" fill="none" xmlns="http://www.w3.org/2000/svg">
<path fill-rule="evenodd" clip-rule="evenodd" d="M68.6273 0.00795558C68.8754 0.0545811 69.0387 0.293461 68.9921 0.541509C68.0461 5.57375 65.0224 10.1077 61.131 13.7934C57.2378 17.4808 52.4482 20.3463 47.9123 22.0373C33.8023 27.2976 18.9371 28.1732 4.13133 28.6723C3.87908 28.6808 3.6677 28.4832 3.6592 28.2309C3.6507 27.9787 3.84829 27.7673 4.10054 27.7588C18.9089 27.2596 33.6376 26.3836 47.593 21.1809C52.0196 19.5306 56.7026 16.7287 60.5025 13.1298C64.3042 9.52906 67.1944 5.15763 68.0938 0.372663C68.1404 0.124615 68.3793 -0.03867 68.6273 0.00795558Z" fill="#357F7A"/>
<path fill-rule="evenodd" clip-rule="evenodd" d="M5.88255 25.2143C6.11357 25.3159 6.21844 25.5856 6.11679 25.8166C5.94663 26.2034 5.74581 26.5268 5.47529 26.8035C5.20517 27.0798 4.88396 27.2906 4.49708 27.4753C3.27378 28.0595 1.91103 28.361 0.636402 28.5807C0.38768 28.6236 0.151287 28.4568 0.108404 28.208C0.0655204 27.9593 0.232386 27.7229 0.481108 27.68C1.73669 27.4636 2.99746 27.1786 4.10321 26.6506C4.4225 26.4981 4.64632 26.344 4.82176 26.1646C4.99681 25.9855 5.14208 25.7624 5.2802 25.4485C5.38185 25.2175 5.65153 25.1126 5.88255 25.2143Z" fill="#357F7A"/>
<path fill-rule="evenodd" clip-rule="evenodd" d="M0.0190533 28.0294C0.0909492 27.7875 0.34536 27.6496 0.587295 27.7215C0.793971 27.7829 1.01693 27.8452 1.25061 27.9104C2.05835 28.1359 2.9943 28.3972 3.8294 28.7839C4.91895 29.2883 5.93974 30.0487 6.36665 31.3295C6.44646 31.5689 6.31706 31.8277 6.07762 31.9075C5.83818 31.9873 5.57937 31.8579 5.49956 31.6185C5.18686 30.6804 4.42918 30.0688 3.4454 29.6133C2.68442 29.261 1.84926 29.0274 1.05259 28.8047C0.805904 28.7357 0.562903 28.6678 0.326937 28.5976C0.0850017 28.5257 -0.0528426 28.2713 0.0190533 28.0294Z" fill="#357F7A"/>
</svg>
