<svg width="78" height="77" viewBox="0 0 78 77" fill="none" xmlns="http://www.w3.org/2000/svg">
<path opacity="0.06" d="M39 20.8229C49.3434 20.8229 59.2632 25.1032 66.5772 32.7223C73.8911 40.3413 78 50.675 78 61.45V71.6068C78 72.8895 77.5108 74.1197 76.6401 75.0267C75.7694 75.9338 74.5885 76.4433 73.3571 76.4433H4.64286C3.41149 76.4433 2.23057 75.9338 1.35986 75.0267C0.489157 74.1197 0 72.8895 0 71.6068L0 61.45C0 50.675 4.10892 40.3413 11.4228 32.7223C18.7368 25.1032 28.6566 20.8229 39 20.8229Z" fill="#62292D"/>
<mask id="mask0_303_776" style="mask-type:luminance" maskUnits="userSpaceOnUse" x="20" y="1" width="38" height="48">
<path d="M39.1018 1.47662C41.554 1.47662 43.9822 1.97977 46.2477 2.95733C48.5132 3.9349 50.5717 5.36773 52.3057 7.17403C54.0396 8.98033 55.4151 11.1247 56.3535 13.4848C57.2919 15.8448 57.7749 18.3743 57.7749 20.9288C57.7749 24.6591 55.8573 29.0805 52.0219 34.193C50.7069 35.9464 49.8726 38.0382 49.6077 40.246L48.9196 45.9793C48.8196 46.8129 48.4307 47.5798 47.8261 48.1359C47.2214 48.6919 46.4427 48.9987 45.6362 48.9987H32.5684C31.7619 48.9987 30.9831 48.6919 30.3785 48.1359C29.7739 47.5798 29.385 46.8129 29.285 45.9793L28.5969 40.2465C28.3321 38.0385 27.4977 35.9465 26.1826 34.193C22.3467 29.0805 20.4287 24.6591 20.4287 20.9288C20.4287 15.7697 22.396 10.822 25.8979 7.17403C29.3998 3.52604 34.1494 1.47662 39.1018 1.47662Z" fill="white"/>
</mask>
<g mask="url(#mask0_303_776)">
<path d="M20.1923 1.23044H58.0116V49.2453H20.1923V1.23044Z" fill="white"/>
</g>
<path d="M39.1018 1.47662C44.0542 1.47662 48.8038 3.52604 52.3057 7.17403C55.8076 10.822 57.7749 15.7698 57.7749 20.9288C57.7749 24.6591 55.8573 29.0805 52.0219 34.1931C50.7069 35.9464 49.8726 38.0382 49.6077 40.246L48.9191 45.9798C48.8191 46.8134 48.4302 47.5804 47.8256 48.1364C47.221 48.6924 46.4422 48.9992 45.6357 48.9992H32.5684C31.7619 48.9992 30.9831 48.6924 30.3785 48.1364C29.7739 47.5804 29.385 46.8134 29.285 45.9798L28.5969 40.247C28.3321 38.039 27.4977 35.947 26.1826 34.1936C22.3467 29.0807 20.4287 24.6591 20.4287 20.9288C20.4287 15.7698 22.396 10.822 25.8979 7.17403C29.3998 3.52604 34.1494 1.47662 39.1018 1.47662Z" stroke="#62292D" stroke-width="1.85714" stroke-linejoin="round"/>
<path d="M31.0656 52.8157H47.1628" stroke="#62292D" stroke-width="1.85714" stroke-linecap="round" stroke-linejoin="round"/>
<path d="M32.2469 56.5094H45.9805" stroke="#62292D" stroke-width="1.85714" stroke-linecap="round" stroke-linejoin="round"/>
<path d="M33.429 60.2025H44.7989" stroke="#62292D" stroke-width="1.85714" stroke-linecap="round" stroke-linejoin="round"/>
<path d="M43.4683 13.7881L34.6107 23.0152H43.4683L35.2556 31.5711" stroke="#62292D" stroke-width="1.85714" stroke-linecap="round" stroke-linejoin="round"/>
</svg>
