<svg width="33" height="33" viewBox="0 0 33 33" fill="none" xmlns="http://www.w3.org/2000/svg">
<path d="M29.8333 22.0584C29.8333 26.9118 26.94 29.8051 22.0866 29.8051H20.5C19.7666 29.8051 19.1666 29.2051 19.1666 28.4718V20.7784C19.1666 20.4184 19.4599 20.1118 19.8199 20.1118L22.1666 20.0718C22.3533 20.0584 22.5133 19.9251 22.5533 19.7384L23.02 17.1918C23.06 16.9518 22.8733 16.7251 22.62 16.7251L19.7799 16.7651C19.4066 16.7651 19.1133 16.4718 19.1 16.1118L19.0466 12.8451C19.0466 12.6318 19.2199 12.4451 19.4466 12.4451L22.6466 12.3918C22.8733 12.3918 23.0466 12.2184 23.0466 11.9918L22.9933 8.79175C22.9933 8.56508 22.82 8.39176 22.5933 8.39176L18.9933 8.44511C16.78 8.48511 15.02 10.2984 15.06 12.5118L15.1266 16.1784C15.14 16.5518 14.8466 16.8451 14.4733 16.8584L12.8733 16.8851C12.6466 16.8851 12.4733 17.0584 12.4733 17.2851L12.5133 19.8184C12.5133 20.0451 12.6866 20.2184 12.9133 20.2184L14.5133 20.1918C14.8866 20.1918 15.1799 20.4851 15.1933 20.8451L15.3133 28.4451C15.3266 29.1918 14.7266 29.8051 13.9799 29.8051H10.9133C6.05996 29.8051 3.16663 26.9118 3.16663 22.0451V10.8851C3.16663 6.03176 6.05996 3.13843 10.9133 3.13843H22.0866C26.94 3.13843 29.8333 6.03176 29.8333 10.8851V22.0584Z" fill="#1877F2"/>
</svg>
