<svg width="147" height="75" viewBox="0 0 147 75" fill="none" xmlns="http://www.w3.org/2000/svg">
<path fill-rule="evenodd" clip-rule="evenodd" d="M16.0413 45.7527C10.0345 53.545 6.79236 62.4891 3.94137 72.0161C3.68501 72.8728 2.78272 73.3594 1.92606 73.1031C1.06939 72.8467 0.582743 71.9444 0.839102 71.0878C3.71135 61.4897 7.08843 52.0628 13.4767 43.7757C13.6258 43.5822 13.7914 43.3622 13.9722 43.1219C15.0887 41.6381 16.7876 39.3804 18.8053 37.8134C20.0002 36.8854 21.4298 36.0951 23.05 35.8817C24.725 35.6611 26.4373 36.0799 28.088 37.2823C29.3046 38.1686 30.3007 39.5508 31.1199 41.0084C31.9545 42.4937 32.6849 44.2035 33.3144 45.8875C34.1745 48.1887 34.9047 50.6195 35.4395 52.4C35.6723 53.1749 35.8681 53.8266 36.0214 54.2909C36.1776 54.7636 36.3738 55.499 36.6168 56.4097C37.2623 58.8289 38.2378 62.4849 39.6688 65.7379C40.6507 67.9698 41.7072 69.6436 42.7484 70.4514C43.2316 70.8263 43.6225 70.9453 43.9503 70.9409C44.2786 70.9366 44.7712 70.8055 45.4515 70.2497C49.2763 67.125 51.5992 62.6855 53.8365 57.7773C54.1386 57.1145 54.4397 56.4415 54.7434 55.7626C56.6371 51.5295 58.6332 47.0673 61.6217 43.4358C62.3277 42.578 63.1191 41.9019 64.0277 41.5791C65.0129 41.2291 65.9763 41.3524 66.8 41.8124C67.558 42.2357 68.1307 42.9026 68.5642 43.5614C69.0078 44.2355 69.3799 45.0158 69.6942 45.8046C70.3225 47.3811 70.7893 49.1708 71.1251 50.6168C71.2699 51.2403 71.3936 51.8145 71.4952 52.2861C71.5122 52.365 71.5286 52.441 71.5443 52.5138C71.6 52.7718 71.6466 52.9846 71.6863 53.1543C71.7061 53.2387 71.7226 53.3062 71.7365 53.3591C71.741 53.3765 71.745 53.3914 71.7485 53.4039C71.7502 53.4101 71.7518 53.4158 71.7533 53.421L71.7584 53.4384C71.7597 53.4426 71.7603 53.4446 71.7603 53.4445C71.8236 53.6379 71.8876 53.8344 71.9526 54.0335C73.1891 57.8255 74.739 62.5788 77.1128 65.6243C78.334 67.1911 79.6261 68.1068 81.0237 68.3342C82.4015 68.5583 84.2569 68.1734 86.7472 66.3262C89.4987 64.2852 93.0927 60.2458 96.5347 55.9802C99.206 52.6697 101.703 49.3295 103.55 46.8588C104.062 46.1733 104.525 45.5548 104.927 45.0224C107.345 41.8215 109.676 38.6386 111.993 35.4742C117.389 28.1061 122.713 20.8379 128.89 13.6742C130.562 11.7348 132.846 9.12117 135.403 6.69078C137.941 4.27915 140.854 1.94394 143.805 0.65359C144.625 0.295381 145.579 0.669188 145.937 1.4885C146.296 2.30782 145.922 3.26239 145.102 3.6206C142.671 4.68359 140.085 6.70909 137.634 9.0381C135.203 11.3484 133.009 13.8553 131.342 15.7889C125.252 22.8514 120.05 29.9546 114.69 37.2742C112.356 40.4617 109.991 43.6902 107.511 46.9743C107.121 47.4893 106.669 48.0945 106.164 48.7698C104.317 51.2409 101.769 54.6503 99.0548 58.0137C95.6286 62.2597 91.8015 66.6089 88.6764 68.927C85.7602 71.0901 83.0341 71.942 80.5037 71.5303C77.9932 71.1218 76.0505 69.5288 74.5588 67.615C71.8179 64.0986 70.1067 58.8322 68.9183 55.1752C68.8374 54.9261 68.7589 54.6844 68.6826 54.4513C68.5869 54.1588 68.481 53.6691 68.3791 53.1977C68.3628 53.1222 68.3461 53.0444 68.3289 52.9645C68.2272 52.4924 68.1094 51.9456 67.9709 51.3494C67.6449 49.9457 67.2217 48.3476 66.6861 47.0033C66.4184 46.3317 66.1401 45.7685 65.8591 45.3414C65.568 44.899 65.3418 44.707 65.2211 44.6396C65.1936 44.6242 65.181 44.6167 65.1679 44.6156C65.1548 44.6146 65.1412 44.62 65.1117 44.6305C64.976 44.6787 64.6374 44.8673 64.1221 45.4935C61.434 48.76 59.6352 52.7715 57.7248 57.0317C57.4153 57.7221 57.1027 58.4191 56.783 59.1204C54.5421 64.0366 51.9628 69.1117 47.5002 72.7574C46.4149 73.644 45.2382 74.1623 43.9932 74.1788C42.7478 74.1953 41.6615 73.7067 40.7634 73.0099C39.0421 71.6744 37.7196 69.3489 36.7047 67.0418C35.15 63.5077 33.9882 59.1499 33.3626 56.8034C33.1738 56.0955 33.0339 55.5706 32.9467 55.3067C32.7487 54.7075 32.527 53.9679 32.2758 53.1299C31.7549 51.392 31.1071 49.2309 30.2811 47.0213C29.6813 45.4164 29.0177 43.8775 28.2969 42.5948C27.5605 41.2844 26.8397 40.3793 26.1813 39.8997C25.1496 39.1482 24.2615 38.9883 23.4728 39.0922C22.6294 39.2033 21.732 39.6405 20.7915 40.371C19.1491 41.6465 17.7502 43.4969 16.6099 45.0052C16.4126 45.2662 16.2231 45.517 16.0413 45.7527Z" fill="#F3E2E3"/>
</svg>
