<svg width="146" height="75" viewBox="0 0 146 75" fill="none" xmlns="http://www.w3.org/2000/svg">
<path fill-rule="evenodd" clip-rule="evenodd" d="M130.624 29.1731C136.631 21.3808 139.873 12.4367 142.724 2.90965C142.981 2.05298 143.883 1.56633 144.74 1.82269C145.596 2.07905 146.083 2.98134 145.827 3.83801C142.954 13.4361 139.577 22.863 133.189 31.1501C133.04 31.3435 132.874 31.5635 132.694 31.8038C131.577 33.2876 129.878 35.5454 127.861 37.1123C126.666 38.0404 125.236 38.8307 123.616 39.0441C121.941 39.2647 120.228 38.8459 118.578 37.6435C117.361 36.7572 116.365 35.375 115.546 33.9174C114.711 32.4321 113.981 30.7223 113.351 29.0383C112.491 26.7371 111.761 24.3063 111.226 22.5257C110.993 21.7509 110.798 21.0992 110.644 20.6348C110.488 20.1622 110.292 19.4267 110.049 18.5161C109.403 16.0969 108.428 12.4409 106.997 9.18789C106.015 6.95593 104.959 5.28219 103.917 4.47438C103.434 4.09952 103.043 3.98053 102.715 3.98487C102.387 3.98922 101.895 4.1203 101.214 4.67608C97.3895 7.80078 95.0665 12.2403 92.8292 17.1485C92.5271 17.8112 92.2261 18.4843 91.9224 19.1632C90.0287 23.3963 88.0326 27.8584 85.044 31.4899C84.3381 32.3478 83.5467 33.0239 82.6381 33.3467C81.6528 33.6967 80.6895 33.5734 79.8658 33.1134C79.1077 32.69 78.5351 32.0232 78.1016 31.3644C77.658 30.6903 77.2859 29.9099 76.9715 29.1212C76.3433 27.5447 75.8765 25.755 75.5406 24.309C75.3958 23.6855 75.2721 23.1112 75.1706 22.6397C75.1536 22.5608 75.1372 22.4848 75.1215 22.4119C75.0657 22.154 75.0191 21.9412 74.9794 21.7714C74.9597 21.6871 74.9431 21.6195 74.9293 21.5666C74.9248 21.5493 74.9207 21.5344 74.9173 21.5219C74.9156 21.5156 74.9139 21.5099 74.9125 21.5048L74.9073 21.4873C74.9061 21.4832 74.9054 21.4812 74.9054 21.4812C74.8422 21.2878 74.7781 21.0914 74.7132 20.8923C73.4767 17.1003 71.9268 12.347 69.553 9.30148C68.3317 7.73464 67.0396 6.81902 65.642 6.59161C64.2643 6.36744 62.4089 6.75235 59.9186 8.59957C57.1671 10.6406 53.5731 14.6799 50.1311 18.9455C47.4598 22.2561 44.9629 25.5963 43.116 28.067C42.6036 28.7524 42.1413 29.371 41.7391 29.9034C39.3211 33.1043 36.99 36.2871 34.6725 39.4516C29.2763 46.8196 23.9532 54.0878 17.7762 61.2515C16.1039 63.191 13.8199 65.8046 11.2625 68.235C8.72479 70.6466 5.81192 72.9818 2.8605 74.2722C2.04118 74.6304 1.0866 74.2566 0.728393 73.4373C0.370195 72.6179 0.743994 71.6634 1.56332 71.3052C3.99467 70.2422 6.58105 68.2167 9.0318 65.8877C11.4628 63.5774 13.6565 61.0705 15.3238 59.1369C21.4136 52.0744 26.6155 44.9712 31.9758 37.6516C34.3101 34.4641 36.6745 31.2356 39.1552 27.9515C39.5443 27.4365 39.9967 26.8312 40.5015 26.1559C42.3485 23.6849 44.897 20.2755 47.611 16.9121C51.0372 12.6661 54.8643 8.31687 57.9894 5.99878C60.9055 3.83569 63.6317 2.98374 66.1621 3.39545C68.6726 3.80393 70.6153 5.39693 72.107 7.31078C74.8478 10.8272 76.5591 16.0936 77.7474 19.7506C77.8284 19.9997 77.9069 20.2414 77.9832 20.4745C78.0788 20.767 78.1848 21.2566 78.2866 21.7281C78.3029 21.8036 78.3197 21.8813 78.3369 21.9613C78.4386 22.4334 78.5564 22.9802 78.6949 23.5764C79.0209 24.98 79.444 26.5782 79.9797 27.9224C80.2473 28.5941 80.5256 29.1573 80.8067 29.5844C81.0978 30.0268 81.324 30.2188 81.4447 30.2862C81.4722 30.3016 81.4848 30.3091 81.4979 30.3101C81.511 30.3112 81.5246 30.3058 81.554 30.2953C81.6897 30.2471 82.0283 30.0585 82.5437 29.4323C85.2318 26.1658 87.0306 22.1543 88.9409 17.8941C89.2505 17.2037 89.563 16.5067 89.8827 15.8054C92.1237 10.8891 94.703 5.81409 99.1656 2.16835C100.251 1.28174 101.428 0.763459 102.673 0.746961C103.918 0.730455 105.004 1.21912 105.902 1.9159C107.624 3.25139 108.946 5.57689 109.961 7.88396C111.516 11.4181 112.678 15.7759 113.303 18.1223C113.492 18.8303 113.632 19.3552 113.719 19.6191C113.917 20.2183 114.139 20.9579 114.39 21.7959C114.911 23.5338 115.559 25.6949 116.385 27.9045C116.984 29.5093 117.648 31.0483 118.369 32.331C119.105 33.6414 119.826 34.5465 120.484 35.0261C121.516 35.7776 122.404 35.9375 123.193 35.8336C124.036 35.7225 124.934 35.2853 125.874 34.5548C127.517 33.2793 128.916 31.4289 130.056 29.9205C130.253 29.6596 130.443 29.4088 130.624 29.1731Z" fill="#F3E2E3"/>
</svg>
