<svg width="49" height="48" viewBox="0 0 49 48" fill="none" xmlns="http://www.w3.org/2000/svg">
<path d="M18.8191 23.24C18.7591 23.24 18.7191 23.24 18.6591 23.24C18.5591 23.22 18.4191 23.22 18.2991 23.24C12.4991 23.06 8.11914 18.5 8.11914 12.88C8.11914 7.16 12.7791 2.5 18.4991 2.5C24.2191 2.5 28.8791 7.16 28.8791 12.88C28.8591 18.5 24.4591 23.06 18.8791 23.24C18.8591 23.24 18.8391 23.24 18.8191 23.24ZM18.4991 5.5C14.4391 5.5 11.1191 8.82 11.1191 12.88C11.1191 16.88 14.2391 20.1 18.2191 20.24C18.3391 20.22 18.5991 20.22 18.8591 20.24C22.7791 20.06 25.8591 16.84 25.8791 12.88C25.8791 8.82 22.5591 5.5 18.4991 5.5Z" fill="#29625E"/>
<path d="M33.5792 23.5C33.5192 23.5 33.4592 23.5 33.3992 23.48C32.5792 23.56 31.7392 22.98 31.6592 22.16C31.5792 21.34 32.0792 20.6 32.8992 20.5C33.1392 20.48 33.3992 20.48 33.6192 20.48C36.5392 20.32 38.8192 17.92 38.8192 14.98C38.8192 11.94 36.3592 9.48 33.3192 9.48C32.4992 9.5 31.8192 8.82 31.8192 8C31.8192 7.18 32.4992 6.5 33.3192 6.5C37.9992 6.5 41.8192 10.32 41.8192 15C41.8192 19.6 38.2192 23.32 33.6392 23.5C33.6192 23.5 33.5992 23.5 33.5792 23.5Z" fill="#29625E"/>
<path d="M18.8392 45.1C14.9192 45.1 10.9792 44.1 7.99922 42.1C5.21922 40.26 3.69922 37.74 3.69922 35C3.69922 32.26 5.21922 29.72 7.99922 27.86C13.9992 23.88 23.7192 23.88 29.6792 27.86C32.4392 29.7 33.9792 32.22 33.9792 34.96C33.9792 37.7 32.4592 40.24 29.6792 42.1C26.6792 44.1 22.7592 45.1 18.8392 45.1ZM9.65922 30.38C7.73922 31.66 6.69922 33.3 6.69922 35.02C6.69922 36.72 7.75922 38.36 9.65922 39.62C14.6392 42.96 23.0392 42.96 28.0192 39.62C29.9392 38.34 30.9792 36.7 30.9792 34.98C30.9792 33.28 29.9192 31.64 28.0192 30.38C23.0392 27.06 14.6392 27.06 9.65922 30.38Z" fill="#29625E"/>
<path d="M37.1794 41.5C36.4794 41.5 35.8594 41.02 35.7194 40.3C35.5594 39.48 36.0794 38.7 36.8794 38.52C38.1394 38.26 39.2994 37.76 40.1994 37.06C41.3394 36.2 41.9594 35.12 41.9594 33.98C41.9594 32.84 41.3394 31.76 40.2194 30.92C39.3394 30.24 38.2394 29.76 36.9394 29.46C36.1394 29.28 35.6194 28.48 35.7994 27.66C35.9794 26.86 36.7794 26.34 37.5993 26.52C39.3194 26.9 40.8194 27.58 42.0394 28.52C43.8994 29.92 44.9594 31.9 44.9594 33.98C44.9594 36.06 43.8794 38.04 42.0194 39.46C40.7794 40.42 39.2194 41.12 37.4994 41.46C37.3794 41.5 37.2794 41.5 37.1794 41.5Z" fill="#29625E"/>
</svg>
