<svg width="49" height="48" viewBox="0 0 49 48" fill="none" xmlns="http://www.w3.org/2000/svg">
<path d="M16.5 11.5C15.68 11.5 15 10.82 15 10V4C15 3.18 15.68 2.5 16.5 2.5C17.32 2.5 18 3.18 18 4V10C18 10.82 17.32 11.5 16.5 11.5Z" fill="#29625E"/>
<path d="M32.5 11.5C31.68 11.5 31 10.82 31 10V4C31 3.18 31.68 2.5 32.5 2.5C33.32 2.5 34 3.18 34 4V10C34 10.82 33.32 11.5 32.5 11.5Z" fill="#29625E"/>
<path d="M32.5 45.5H16.5C9.2 45.5 5 41.3 5 34V17C5 9.7 9.2 5.5 16.5 5.5H32.5C39.8 5.5 44 9.7 44 17V34C44 41.3 39.8 45.5 32.5 45.5ZM16.5 8.5C10.78 8.5 8 11.28 8 17V34C8 39.72 10.78 42.5 16.5 42.5H32.5C38.22 42.5 41 39.72 41 34V17C41 11.28 38.22 8.5 32.5 8.5H16.5Z" fill="#29625E"/>
<path d="M32.5 23.5H16.5C15.68 23.5 15 22.82 15 22C15 21.18 15.68 20.5 16.5 20.5H32.5C33.32 20.5 34 21.18 34 22C34 22.82 33.32 23.5 32.5 23.5Z" fill="#29625E"/>
<path d="M24.5 33.5H16.5C15.68 33.5 15 32.82 15 32C15 31.18 15.68 30.5 16.5 30.5H24.5C25.32 30.5 26 31.18 26 32C26 32.82 25.32 33.5 24.5 33.5Z" fill="#29625E"/>
</svg>
