<svg width="32" height="32" viewBox="0 0 32 32" fill="none" xmlns="http://www.w3.org/2000/svg">
<g opacity="0.3">
<path fill-rule="evenodd" clip-rule="evenodd" d="M5.95663 8.11816C5.62009 7.453 6.10347 6.66671 6.84892 6.66671H10.8889L14.6667 14.1334L14.6667 24.3334C14.6667 24.8857 14.219 25.3334 13.6667 25.3334H4.33337C3.78109 25.3334 3.33337 24.8857 3.33337 24.3334L3.33337 15.1334C3.33337 14.5811 3.78109 14.1334 4.33337 14.1334L9.00004 14.1334L5.95663 8.11816ZM19.9566 8.11816C19.6201 7.453 20.1035 6.66671 20.8489 6.66671H24.8889L28.6667 14.1334V24.3334C28.6667 24.8857 28.219 25.3334 27.6667 25.3334H18.3334C17.7811 25.3334 17.3334 24.8857 17.3334 24.3334V15.1334C17.3334 14.5811 17.7811 14.1334 18.3334 14.1334L23 14.1334L19.9566 8.11816Z" fill="#29625E"/>
</g>
</svg>
