<svg width="78" height="77" viewBox="0 0 78 77" fill="none" xmlns="http://www.w3.org/2000/svg">
<path opacity="0.06" d="M39 22.0479C49.3434 22.0479 59.2632 26.264 66.5772 33.7687C73.8911 41.2735 78 51.452 78 62.0653V72.0697C78 73.3331 77.5108 74.5449 76.6401 75.4383C75.7694 76.3317 74.5885 76.8336 73.3571 76.8336H4.64286C3.41149 76.8336 2.23057 76.3317 1.35986 75.4383C0.489157 74.5449 0 73.3331 0 72.0697L0 62.0653C0 51.452 4.10892 41.2735 11.4228 33.7687C18.7368 26.264 28.6566 22.0479 39 22.0479Z" fill="#62292D"/>
<mask id="mask0_303_687" style="mask-type:luminance" maskUnits="userSpaceOnUse" x="19" y="1" width="43" height="61">
<path d="M61.7463 17.7537V53.9599C61.7463 55.8896 60.9992 57.7403 59.6694 59.1048C58.3395 60.4693 56.5359 61.2359 54.6552 61.2359H26.2623C25.3311 61.2359 24.4089 61.0477 23.5486 60.682C22.6882 60.3163 21.9065 59.7804 21.248 59.1047C20.5895 58.429 20.0672 57.6268 19.7109 56.744C19.3546 55.8612 19.1712 54.915 19.1713 53.9594V8.36295C19.1712 7.40741 19.3546 6.46122 19.7109 5.57839C20.0672 4.69557 20.5895 3.89342 21.248 3.21773C21.9065 2.54204 22.6882 2.00604 23.5486 1.64036C24.4089 1.27467 25.3311 1.08646 26.2623 1.08646H45.5817C46.2053 1.08642 46.8227 1.21297 47.3984 1.45883C47.9741 1.70469 48.4967 2.06499 48.9362 2.51898L60.3724 14.3336C61.2527 15.2427 61.7466 16.4722 61.7463 17.7537Z" fill="white"/>
</mask>
<g mask="url(#mask0_303_687)">
<path d="M18.9349 0.843964H61.9817V61.4779H18.9349V0.843964Z" fill="white"/>
</g>
<path d="M61.7463 17.7537V53.9599C61.7463 55.8896 60.9992 57.7403 59.6693 59.1048C58.3395 60.4693 56.5359 61.2359 54.6552 61.2359H26.2623C25.3311 61.2359 24.4089 61.0477 23.5486 60.682C22.6882 60.3163 21.9065 59.7804 21.248 59.1047C20.5895 58.429 20.0672 57.6268 19.7109 56.744C19.3546 55.8612 19.1712 54.915 19.1713 53.9594V8.36247C19.1713 6.43275 19.9184 4.58207 21.2482 3.21755C22.578 1.85303 24.3816 1.08646 26.2623 1.08646H45.5817C46.2053 1.08642 46.8227 1.21298 47.3984 1.45883C47.9741 1.70469 48.4967 2.06499 48.9362 2.51898L60.3724 14.3336C61.2527 15.2427 61.7466 16.4722 61.7463 17.7537Z" stroke="#62292D" stroke-width="1.85714" stroke-linejoin="round"/>
<path d="M47.5493 1.08646V11.5091C47.5493 12.5383 47.9478 13.5254 48.6571 14.2532C49.3663 14.981 50.3283 15.3898 51.3314 15.3898H61.7453" stroke="#62292D" stroke-width="1.85714" stroke-linejoin="round"/>
<mask id="mask1_303_687" style="mask-type:luminance" maskUnits="userSpaceOnUse" x="29" y="15" width="38" height="30">
<path d="M29.335 25.4746V20.4891C29.335 19.2027 29.8331 17.9689 30.7196 17.0592C31.6062 16.1495 32.8086 15.6385 34.0624 15.6385H61.7176C62.9713 15.6385 64.1737 16.1495 65.0603 17.0592C65.9468 17.9689 66.4449 19.2027 66.4449 20.4891V44.4915L62.4196 41.3639C61.1878 40.4075 59.6854 39.89 58.1407 39.89H52.3636" fill="white"/>
</mask>
<g mask="url(#mask1_303_687)">
<path d="M29.0987 15.396H66.6812V44.7344H29.0987V15.396Z" fill="white"/>
</g>
<path d="M29.335 25.4746V20.4891C29.335 19.2027 29.8331 17.9689 30.7196 17.0592C31.6062 16.1495 32.8086 15.6385 34.0624 15.6385H61.7176C62.9713 15.6385 64.1737 16.1495 65.0603 17.0592C65.9469 17.9689 66.4449 19.2027 66.4449 20.4891V44.492L62.4196 41.3639C61.1878 40.4075 59.6854 39.89 58.1407 39.8899H52.3636" stroke="#62292D" stroke-width="1.85714" stroke-linecap="round" stroke-linejoin="round"/>
<mask id="mask2_303_687" style="mask-type:luminance" maskUnits="userSpaceOnUse" x="11" y="29" width="38" height="30">
<path d="M43.9897 29.2206H16.3345C15.0807 29.2206 13.8783 29.7316 12.9917 30.6413C12.1052 31.551 11.6071 32.7848 11.6071 34.0713V58.0736L15.6325 54.946C16.8642 53.9896 18.3667 53.4721 19.9113 53.4721H43.9897C44.6105 53.4721 45.2252 53.3466 45.7987 53.1028C46.3723 52.8591 46.8934 52.5018 47.3324 52.0513C47.7714 51.6009 48.1196 51.0662 48.3572 50.4777C48.5947 49.8892 48.717 49.2584 48.717 48.6214V34.0694C48.7165 32.7832 48.2182 31.5499 47.3317 30.6406C46.4452 29.7314 45.2431 29.2206 43.9897 29.2206Z" fill="white"/>
</mask>
<g mask="url(#mask2_303_687)">
<path d="M11.3708 58.3166H48.9533V28.9781H11.3708V58.3166Z" fill="white"/>
</g>
<path d="M43.9897 29.2206L16.3345 29.2206C15.7137 29.2206 15.0989 29.3461 14.5253 29.5899C13.9517 29.8337 13.4306 30.191 12.9916 30.6415C12.5526 31.092 12.2044 31.6267 11.9669 32.2153C11.7293 32.8039 11.6071 33.4347 11.6072 34.0717V58.0741L15.6325 54.9484C16.8643 53.992 18.3667 53.4745 19.9114 53.4744H43.9897C45.2435 53.4744 46.4459 52.9634 47.3324 52.0537C48.219 51.144 48.717 49.9102 48.717 48.6238V34.0717C48.7171 33.4347 48.5949 32.8039 48.3573 32.2153C48.1198 31.6267 47.7716 31.092 47.3326 30.6415C46.8936 30.191 46.3725 29.8337 45.7989 29.5899C45.2253 29.3461 44.6105 29.2206 43.9897 29.2206Z" stroke="#62292D" stroke-width="1.85714" stroke-linecap="square" stroke-linejoin="round"/>
<path d="M33.1992 35.3375L27.0669 41.6298H33.1992L27.5131 47.4642" stroke="#62292D" stroke-width="1.85714" stroke-linecap="round" stroke-linejoin="round"/>
</svg>
