<svg width="78" height="78" viewBox="0 0 78 78" fill="none" xmlns="http://www.w3.org/2000/svg">
<path opacity="0.06" d="M39 24.5272C49.3434 24.5272 59.2632 28.6361 66.5772 35.9501C73.8911 43.264 78 53.1838 78 63.5272V73.2772C78 74.5086 77.5108 75.6895 76.6401 76.5602C75.7694 77.4309 74.5885 77.9201 73.3571 77.9201H4.64286C3.41149 77.9201 2.23057 77.4309 1.35986 76.5602C0.489157 75.6895 0 74.5086 0 73.2772L0 63.5272C0 53.1838 4.10892 43.264 11.4228 35.9501C18.7368 28.6361 28.6566 24.5272 39 24.5272Z" fill="#62292D"/>
<mask id="mask0_303_722" style="mask-type:luminance" maskUnits="userSpaceOnUse" x="17" y="7" width="44" height="59">
<path d="M60.2178 21.6556V58.8913C60.2178 60.7719 59.4707 62.5756 58.1409 63.9054C56.8111 65.2352 55.0074 65.9823 53.1268 65.9823H24.7339C23.8025 65.9823 22.8803 65.7988 22.0198 65.4424C21.1594 65.0859 20.3776 64.5634 19.7191 63.9048C19.0606 63.2461 18.5383 62.4642 18.1821 61.6036C17.8258 60.7431 17.6426 59.8208 17.6428 58.8894V14.4522C17.6428 13.5209 17.8261 12.5988 18.1825 11.7384C18.5388 10.878 19.0611 10.0963 19.7196 9.43777C20.378 8.77925 21.1598 8.25689 22.0201 7.90051C22.8805 7.54412 23.8026 7.36069 24.7339 7.36069H46.0209" fill="white"/>
</mask>
<g mask="url(#mask0_303_722)">
<path d="M17.4065 7.12436H60.4532V66.2168H17.4065V7.12436Z" fill="white"/>
</g>
<path d="M60.2178 21.6556V58.8913C60.2178 60.7719 59.4707 62.5756 58.1409 63.9054C56.8111 65.2352 55.0074 65.9823 53.1268 65.9823H24.7339C23.8025 65.9823 22.8803 65.7988 22.0198 65.4424C21.1594 65.0859 20.3776 64.5634 19.7191 63.9048C19.0606 63.2461 18.5383 62.4642 18.1821 61.6036C17.8258 60.7431 17.6426 59.8208 17.6428 58.8894V14.4517C17.6428 12.5711 18.3899 10.7674 19.7197 9.4376C21.0496 8.10778 22.8532 7.36069 24.7339 7.36069H46.0209" stroke="#62292D" stroke-width="1.85714" stroke-linejoin="round"/>
<mask id="mask1_303_722" style="mask-type:luminance" maskUnits="userSpaceOnUse" x="17" y="7" width="44" height="38">
<path d="M60.2178 21.6556V44.368H17.6428V14.4517C17.6428 12.5711 18.3899 10.7674 19.7197 9.4376C21.0496 8.10778 22.8532 7.36069 24.7339 7.36069H46.0209" fill="white"/>
</mask>
<g mask="url(#mask1_303_722)">
<path d="M17.4065 7.12436H60.4532V44.6048H17.4065V7.12436Z" fill="white"/>
</g>
<path d="M60.2178 21.6556V44.3684H17.6428V14.4517C17.6428 12.5711 18.3899 10.7674 19.7197 9.4376C21.0496 8.10778 22.8532 7.36069 24.7339 7.36069H46.0209" stroke="#62292D" stroke-width="1.85714" stroke-linecap="round" stroke-linejoin="round"/>
<path d="M54.2675 50.1497H34.6366" stroke="#62292D" stroke-width="1.85714" stroke-linecap="round" stroke-linejoin="round"/>
<path d="M54.2676 60.0771H41.7277" stroke="#62292D" stroke-width="1.85714" stroke-linecap="round" stroke-linejoin="round"/>
<path d="M54.2675 55.1134H27.5455" stroke="#62292D" stroke-width="1.85714" stroke-linecap="round" stroke-linejoin="round"/>
<path d="M23.7886 41.871V24.1432C23.7886 23.5163 24.0376 22.9151 24.4809 22.4718C24.9242 22.0286 25.5254 21.7795 26.1523 21.7795H33.4796C34.1065 21.7795 34.7077 22.0286 35.151 22.4718C35.5943 22.9151 35.8433 23.5163 35.8433 24.1432V41.871" stroke="#62292D" stroke-width="1.85714" stroke-linecap="square" stroke-linejoin="round"/>
<mask id="mask2_303_722" style="mask-type:luminance" maskUnits="userSpaceOnUse" x="31" y="30" width="13" height="14">
<path d="M31.825 43.0527V33.3616C31.825 33.0512 31.8861 32.7439 32.0049 32.4571C32.1237 32.1703 32.2978 31.9097 32.5172 31.6903C32.7367 31.4708 32.9973 31.2967 33.2841 31.1779C33.5709 31.0591 33.8782 30.998 34.1886 30.998H41.516C41.8264 30.998 42.1337 31.0591 42.4205 31.1779C42.7073 31.2967 42.9679 31.4708 43.1874 31.6903C43.4069 31.9097 43.581 32.1703 43.6997 32.4571C43.8185 32.7439 43.8797 33.0512 43.8797 33.3616V43.0527" fill="white"/>
</mask>
<g mask="url(#mask2_303_722)">
<path d="M31.5886 30.7617H44.116V43.289H31.5886V30.7617Z" fill="white"/>
</g>
<path d="M31.825 43.0527V33.3616C31.825 32.7347 32.074 32.1335 32.5173 31.6903C32.9605 31.247 33.5617 30.998 34.1886 30.998H41.516C42.1429 30.998 42.7441 31.247 43.1874 31.6903C43.6306 32.1335 43.8797 32.7347 43.8797 33.3616V43.0527" stroke="#62292D" stroke-width="1.85714" stroke-linejoin="round"/>
<path d="M40.709 14.2154L49.094 22.6004L70.381 1.31339" stroke="#62292D" stroke-width="1.85714" stroke-linecap="round" stroke-linejoin="round"/>
</svg>
