<svg width="49" height="48" viewBox="0 0 49 48" fill="none" xmlns="http://www.w3.org/2000/svg">
<path d="M26.4996 29.5H24.4996C23.6796 29.5 22.9996 28.82 22.9996 28C22.9996 27.18 23.6796 26.5 24.4996 26.5H26.4996C27.8796 26.5 28.9996 25.38 28.9996 24V5.5H12.4996C10.1396 5.5 7.9795 6.77997 6.8195 8.83997C6.4195 9.55997 5.49958 9.82004 4.77958 9.42004C4.05958 9.02004 3.79951 8.10001 4.19951 7.38C5.87951 4.38 9.05955 2.5 12.4996 2.5H30.4996C31.3196 2.5 31.9996 3.18 31.9996 4V24C31.9996 27.04 29.5396 29.5 26.4996 29.5Z" fill="#29625E"/>
<path d="M38.5 41.5H36.5C35.68 41.5 35 40.82 35 40C35 38.62 33.88 37.5 32.5 37.5C31.12 37.5 30 38.62 30 40C30 40.82 29.32 41.5 28.5 41.5H20.5C19.68 41.5 19 40.82 19 40C19 38.62 17.88 37.5 16.5 37.5C15.12 37.5 14 38.62 14 40C14 40.82 13.32 41.5 12.5 41.5H10.5C6.36 41.5 3 38.14 3 34C3 33.18 3.68 32.5 4.5 32.5C5.32 32.5 6 33.18 6 34C6 36.48 8.02 38.5 10.5 38.5H11.2C11.86 36.2 13.98 34.5 16.5 34.5C19.02 34.5 21.14 36.2 21.8 38.5H27.22C27.88 36.2 30 34.5 32.52 34.5C35.04 34.5 37.1599 36.2 37.8199 38.5H38.5C40.98 38.5 43 36.48 43 34V29.5H38.5C36.58 29.5 35 27.92 35 26V20C35 18.08 36.56 16.5 38.5 16.5L36.36 12.76C35.92 11.98 35.0801 11.5 34.1801 11.5H32V24C32 27.04 29.54 29.5 26.5 29.5H24.5C23.68 29.5 23 28.82 23 28C23 27.18 23.68 26.5 24.5 26.5H26.5C27.88 26.5 29 25.38 29 24V10C29 9.18 29.68 8.5 30.5 8.5H34.1801C36.1601 8.5 37.98 9.56003 38.96 11.28L42.38 17.26C42.64 17.72 42.64 18.3 42.38 18.76C42.12 19.22 41.62 19.5 41.08 19.5H38.5C38.22 19.5 38 19.72 38 20V26C38 26.28 38.22 26.5 38.5 26.5H44.5C45.32 26.5 46 27.18 46 28V34C46 38.14 42.64 41.5 38.5 41.5Z" fill="#29625E"/>
<path d="M16.5 45.5C13.46 45.5 11 43.04 11 40C11 36.96 13.46 34.5 16.5 34.5C19.54 34.5 22 36.96 22 40C22 43.04 19.54 45.5 16.5 45.5ZM16.5 37.5C15.12 37.5 14 38.62 14 40C14 41.38 15.12 42.5 16.5 42.5C17.88 42.5 19 41.38 19 40C19 38.62 17.88 37.5 16.5 37.5Z" fill="#29625E"/>
<path d="M32.5 45.5C29.46 45.5 27 43.04 27 40C27 36.96 29.46 34.5 32.5 34.5C35.54 34.5 38 36.96 38 40C38 43.04 35.54 45.5 32.5 45.5ZM32.5 37.5C31.12 37.5 30 38.62 30 40C30 41.38 31.12 42.5 32.5 42.5C33.88 42.5 35 41.38 35 40C35 38.62 33.88 37.5 32.5 37.5Z" fill="#29625E"/>
<path d="M44.5 29.5H38.5C36.58 29.5 35 27.92 35 26V20C35 18.08 36.58 16.5 38.5 16.5H41.08C41.62 16.5 42.12 16.78 42.38 17.26L45.8 23.26C45.92 23.48 46 23.74 46 24V28C46 28.82 45.32 29.5 44.5 29.5ZM38.5 19.5C38.22 19.5 38 19.72 38 20V26C38 26.28 38.22 26.5 38.5 26.5H43V24.4L40.2 19.5H38.5Z" fill="#29625E"/>
<path d="M16.5 17.5H4.5C3.68 17.5 3 16.82 3 16C3 15.18 3.68 14.5 4.5 14.5H16.5C17.32 14.5 18 15.18 18 16C18 16.82 17.32 17.5 16.5 17.5Z" fill="#29625E"/>
<path d="M12.5 23.5H4.5C3.68 23.5 3 22.82 3 22C3 21.18 3.68 20.5 4.5 20.5H12.5C13.32 20.5 14 21.18 14 22C14 22.82 13.32 23.5 12.5 23.5Z" fill="#29625E"/>
<path d="M8.5 29.5H4.5C3.68 29.5 3 28.82 3 28C3 27.18 3.68 26.5 4.5 26.5H8.5C9.32 26.5 10 27.18 10 28C10 28.82 9.32 29.5 8.5 29.5Z" fill="#29625E"/>
</svg>
