<svg width="33" height="33" viewBox="0 0 33 33" fill="none" xmlns="http://www.w3.org/2000/svg">
<path d="M13.1667 30.8051H9.16671C8.62004 30.8051 8.16671 30.3518 8.16671 29.8051V26.8051H3.83337C3.28671 26.8051 2.83337 26.3518 2.83337 25.8051V7.13843C2.83337 6.93843 2.88671 6.75174 3.00671 6.57841L5.67338 2.57841C5.86005 2.29841 6.16671 2.13843 6.50004 2.13843H29.1667C29.7134 2.13843 30.1667 2.59176 30.1667 3.13843V19.1384C30.1667 19.4051 30.06 19.6584 29.8734 19.8451L23.2067 26.5118C23.02 26.6984 22.7667 26.8051 22.5 26.8051H16.3667L13.9934 30.3651C13.8067 30.6318 13.5 30.8051 13.1667 30.8051ZM10.1667 28.8051H12.6334L15.0067 25.2451C15.1934 24.9651 15.5 24.8051 15.8334 24.8051H22.0867L28.1667 18.7251V4.13843H7.03337L4.83337 7.44511V24.8051H9.16671C9.71337 24.8051 10.1667 25.2584 10.1667 25.8051V28.8051Z" fill="#7289D9"/>
<path d="M15.1667 18.8049H12.5C11.9533 18.8049 11.5 18.3516 11.5 17.8049V9.80493C11.5 9.25826 11.9533 8.80493 12.5 8.80493H15.1667C15.7133 8.80493 16.1667 9.25826 16.1667 9.80493V17.8049C16.1667 18.3516 15.7133 18.8049 15.1667 18.8049ZM13.5 16.8049H14.1667V10.8049H13.5V16.8049Z" fill="#7289D9"/>
<path d="M21.8333 18.8049H19.1666C18.62 18.8049 18.1666 18.3516 18.1666 17.8049V9.80493C18.1666 9.25826 18.62 8.80493 19.1666 8.80493H21.8333C22.38 8.80493 22.8333 9.25826 22.8333 9.80493V17.8049C22.8333 18.3516 22.38 18.8049 21.8333 18.8049ZM20.1666 16.8049H20.8333V10.8049H20.1666V16.8049Z" fill="#7289D9"/>
</svg>
