<svg width="33" height="33" viewBox="0 0 33 33" fill="none" xmlns="http://www.w3.org/2000/svg">
<path fill-rule="evenodd" clip-rule="evenodd" d="M25.3646 9.14489L25.3149 9.11176C24.2878 8.13438 23.0786 7.67054 21.687 7.73681L21.6373 7.63741L21.6705 7.62085C22.9295 7.33923 23.6749 7.04105 23.9068 6.70973C23.9731 6.44468 23.8903 6.29559 23.6087 6.26246C22.9792 6.34529 22.3828 6.47781 21.8693 6.69317C22.5319 6.26246 22.7804 5.96428 22.6313 5.81519C21.9852 5.83175 21.2729 6.16307 20.544 6.82569C20.809 6.36185 20.925 6.0968 20.8587 6.06367C20.4943 6.29559 20.1961 6.56064 19.9311 6.84226C19.3678 7.47175 18.9206 8.05155 18.5727 8.58166L18.5561 8.61479C17.6781 10.056 17.0486 11.4972 16.6842 12.9716L16.5517 13.0875L16.5185 13.1041C15.9884 12.4415 15.3424 11.8782 14.5803 11.431C13.6858 10.8346 12.6256 10.2879 11.3997 9.74125C10.0745 9.0455 8.71609 8.48226 7.3577 8.03499C7.34114 9.5756 8.10316 10.7849 9.57751 11.6794V11.696C9.06397 11.696 8.55043 11.7788 8.05346 11.9279C8.15286 13.3526 9.16336 14.33 11.0684 14.8601L11.0519 14.8932C10.3064 14.8435 9.69347 15.1085 9.21306 15.6552C9.84256 16.8811 10.9525 17.4609 12.5593 17.4277C12.2446 17.5934 11.9961 17.759 11.8304 17.9578C11.5323 18.2726 11.4329 18.637 11.5323 19.0512C11.8801 19.6807 12.4931 19.9623 13.4042 19.9126L13.4539 19.9789L13.4373 20.012C11.8636 21.6354 9.95852 22.3643 7.73871 22.2152L7.70558 22.2318C6.3472 22.2152 4.88942 21.5692 3.31567 20.277C4.88942 22.5465 6.99326 24.1865 9.59407 25.2302C12.5593 26.2076 15.5412 26.2904 18.5064 25.4455H18.5561C21.4385 24.6172 23.8737 22.8944 25.8947 20.3102C26.8224 18.9683 27.4022 17.6762 27.6341 16.4338C29.1416 16.4835 30.2184 16.0528 30.8976 15.1251L30.881 15.092C30.3675 15.2742 29.3901 15.2245 27.9489 14.9263V14.7607C29.5392 14.5784 30.4834 14.0649 30.7816 13.22C29.6717 13.6508 28.5784 13.6673 27.5016 13.2532C27.3028 11.7623 26.5905 10.3873 25.3646 9.14489Z" fill="#C2D1D9"/>
<mask id="mask0_303_326" style="mask-type:luminance" maskUnits="userSpaceOnUse" x="3" y="5" width="28" height="22">
<path fill-rule="evenodd" clip-rule="evenodd" d="M25.3646 9.14489L25.3149 9.11176C24.2878 8.13438 23.0786 7.67054 21.687 7.73681L21.6373 7.63741L21.6705 7.62085C22.9295 7.33923 23.6749 7.04105 23.9068 6.70973C23.9731 6.44468 23.8903 6.29559 23.6087 6.26246C22.9792 6.34529 22.3828 6.47781 21.8693 6.69317C22.5319 6.26246 22.7804 5.96428 22.6313 5.81519C21.9852 5.83175 21.2729 6.16307 20.544 6.82569C20.809 6.36185 20.925 6.0968 20.8587 6.06367C20.4943 6.29559 20.1961 6.56064 19.9311 6.84226C19.3678 7.47175 18.9206 8.05155 18.5727 8.58166L18.5561 8.61479C17.6781 10.056 17.0486 11.4972 16.6842 12.9716L16.5517 13.0875L16.5185 13.1041C15.9884 12.4415 15.3424 11.8782 14.5803 11.431C13.6858 10.8346 12.6256 10.2879 11.3997 9.74125C10.0745 9.0455 8.71609 8.48226 7.3577 8.03499C7.34114 9.5756 8.10316 10.7849 9.57751 11.6794V11.696C9.06397 11.696 8.55043 11.7788 8.05346 11.9279C8.15286 13.3526 9.16336 14.33 11.0684 14.8601L11.0519 14.8932C10.3064 14.8435 9.69347 15.1085 9.21306 15.6552C9.84256 16.8811 10.9525 17.4609 12.5593 17.4277C12.2446 17.5934 11.9961 17.759 11.8304 17.9578C11.5323 18.2726 11.4329 18.637 11.5323 19.0512C11.8801 19.6807 12.4931 19.9623 13.4042 19.9126L13.4539 19.9789L13.4373 20.012C11.8636 21.6354 9.95852 22.3643 7.73871 22.2152L7.70558 22.2318C6.3472 22.2152 4.88942 21.5692 3.31567 20.277C4.88942 22.5465 6.99326 24.1865 9.59407 25.2302C12.5593 26.2076 15.5412 26.2904 18.5064 25.4455H18.5561C21.4385 24.6172 23.8737 22.8944 25.8947 20.3102C26.8224 18.9683 27.4022 17.6762 27.6341 16.4338C29.1416 16.4835 30.2184 16.0528 30.8976 15.1251L30.881 15.092C30.3675 15.2742 29.3901 15.2245 27.9489 14.9263V14.7607C29.5392 14.5784 30.4834 14.0649 30.7816 13.22C29.6717 13.6508 28.5784 13.6673 27.5016 13.2532C27.3028 11.7623 26.5905 10.3873 25.3646 9.14489Z" fill="white"/>
</mask>
<g mask="url(#mask0_303_326)">
<rect x="0.644653" y="0.471924" width="32.0564" height="32.0564" fill="#1DA1F2"/>
</g>
</svg>
